<?xml version="1.0" encoding="UTF-8" standalone="no"?>
<!-- Created with Inkscape (http://www.inkscape.org/) -->

<svg
   width="960"
   height="960"
   viewBox="0 0 253.99999 254"
   version="1.1"
   id="svg1"
   xml:space="preserve"
   sodipodi:docname="bskiesnone.svg"
   inkscape:version="1.4.3 (0d15f75, 2025-12-25)"
   xmlns:inkscape="http://www.inkscape.org/namespaces/inkscape"
   xmlns:sodipodi="http://sodipodi.sourceforge.net/DTD/sodipodi-0.dtd"
   xmlns="http://www.w3.org/2000/svg"
   xmlns:svg="http://www.w3.org/2000/svg"><sodipodi:namedview
     id="namedview1"
     pagecolor="#505050"
     bordercolor="#eeeeee"
     borderopacity="1"
     inkscape:showpageshadow="0"
     inkscape:pageopacity="0"
     inkscape:pagecheckerboard="0"
     inkscape:deskcolor="#505050"
     inkscape:document-units="mm"
     inkscape:zoom="0.72604517"
     inkscape:cx="396.66953"
     inkscape:cy="451.07386"
     inkscape:window-width="1920"
     inkscape:window-height="1017"
     inkscape:window-x="-8"
     inkscape:window-y="-8"
     inkscape:window-maximized="1"
     inkscape:current-layer="layer1" /><defs
     id="defs1" /><g
     inkscape:label="Ebene 1"
     inkscape:groupmode="layer"
     id="layer1"><path
       style="fill:none"
       d="M 109.09801,238.29681 C 98.893585,231.89616 84.352094,222.78277 76.783585,218.04482 L 63.02266,209.43036 53.017682,192.14523 43.012704,174.86009 43.782722,174.252 c 3.429694,-2.70845 11.999196,-9.22269 12.118506,-9.21206 0.0822,0.007 1.207789,1.31118 2.501307,2.89747 2.626191,3.22059 9.179832,9.71545 12.224587,12.11494 1.094246,0.86235 1.995758,1.66584 2.00336,1.78554 0.0076,0.1197 -1.007801,1.53081 -2.256452,3.1358 -1.248651,1.60499 -2.602927,3.34914 -3.009501,3.87588 l -0.739227,0.95772 2.682856,1.89141 c 4.765456,3.35963 9.046863,5.92397 13.88743,8.31782 2.604665,1.28811 5.034667,2.41561 5.400006,2.50556 0.644578,0.1587 0.717497,0.0335 2.462073,-4.22819 0.988802,-2.41546 1.865815,-4.46556 1.948917,-4.55578 0.0831,-0.0902 1.553421,0.35512 3.267375,0.98964 5.560881,2.0587 12.845311,3.96414 17.573011,4.5967 1.93788,0.25929 2.17473,0.35026 2.16494,0.83154 -0.006,0.29722 -0.28671,2.53947 -0.62368,4.98278 -0.33698,2.44331 -0.59263,4.46597 -0.56812,4.49479 0.0245,0.0288 1.39291,0.20058 3.04087,0.38167 3.95789,0.43493 16.82473,0.42537 20.2432,-0.015 1.43724,-0.18516 2.63291,-0.35534 2.65703,-0.37816 0.0241,-0.0228 -0.2397,-2.15803 -0.5863,-4.74489 -0.34659,-2.58686 -0.63091,-4.82945 -0.63183,-4.98352 -9.3e-4,-0.15701 1.11817,-0.43069 2.54618,-0.62268 3.75162,-0.50439 11.91623,-2.62448 16.39763,-4.25795 2.15587,-0.78581 3.99337,-1.35722 4.08335,-1.2698 0.09,0.0874 0.97174,2.13405 1.95947,4.54805 1.73159,4.23195 1.81929,4.38343 2.44958,4.23107 0.35953,-0.0869 2.53518,-1.08226 4.83476,-2.21189 5.66372,-2.78219 10.14394,-5.49453 15.86953,-9.60745 l 1.23579,-0.88772 -2.824,-3.70552 c -1.5532,-2.03804 -2.90437,-3.84342 -3.0026,-4.01195 -0.10913,-0.18724 0.76273,-1.09594 2.24151,-2.33621 4.64233,-3.89359 10.5997,-9.96553 13.31516,-13.57126 0.47531,-0.63113 0.92423,-1.15116 0.99759,-1.1556 0.11595,-0.007 12.04469,9.11762 12.6291,9.66036 0.19788,0.18378 -19.05732,33.93957 -19.77701,34.67055 -0.16629,0.16891 -14.23707,9.0256 -31.2684,19.68155 -17.03133,10.65594 -31.45564,19.71937 -32.05404,20.14095 -0.59839,0.42157 -1.18635,0.76194 -1.30658,0.75636 -0.12023,-0.006 -8.56767,-5.24703 -18.77209,-11.64767 z m 11.6286,-42.96285 c -3.14723,-0.29664 -4.18107,-0.48456 -4.18107,-0.75995 0,-0.30272 1.0109,-8.08963 1.1606,-8.94003 0.12027,-0.68324 0.0967,-0.69435 -2.41412,-1.13858 -4.87164,-0.86192 -9.93749,-2.24444 -14.27598,-3.89608 -0.99571,-0.37906 -1.905742,-0.59383 -2.022305,-0.47726 -0.116563,0.11656 -0.987611,2.08884 -1.935661,4.38284 -0.948051,2.294 -1.822325,4.27364 -1.94283,4.39921 -0.283198,0.29508 -8.199564,-3.55248 -11.616626,-5.64599 -1.97206,-1.20821 -6.385024,-4.16355 -7.929714,-5.31049 -0.0443,-0.0329 1.278616,-1.82528 2.939815,-3.98309 1.661198,-2.1578 3.02036,-3.98332 3.02036,-4.05669 0,-0.0734 -1.264121,-1.1924 -2.809157,-2.48671 -13.149535,-11.01571 -22.43295,-27.42343 -25.518767,-45.10244 -0.221989,-1.2718 -0.43601,-2.33409 -0.475603,-2.36063 -0.03959,-0.0265 -2.222482,0.24041 -4.850864,0.59323 -2.628382,0.35283 -4.836691,0.5837 -4.907352,0.51303 -0.921581,-0.92158 -0.932118,-21.419025 -0.01148,-22.339658 0.06435,-0.0644 2.261253,0.18859 4.882016,0.562093 2.620763,0.37349 4.806035,0.63806 4.856161,0.58794 0.05013,-0.0501 0.326128,-1.396173 0.613339,-2.991203 0.74218,-4.12172 1.87892,-8.37136 3.253917,-12.1646 0.653377,-1.80248 1.187739,-3.373639 1.18747,-3.491453 -2.68e-4,-0.117814 -2.009252,-1.035222 -4.464409,-2.038683 -2.455157,-1.003462 -4.516821,-1.910069 -4.581476,-2.014683 -0.190178,-0.307715 3.852199,-8.464667 5.677175,-11.455746 2.627358,-4.306158 5.240599,-7.871369 5.653459,-7.71294 0.197891,0.07594 1.979984,1.373815 3.960206,2.88417 1.980222,1.510356 3.668556,2.746101 3.751854,2.746101 0.0833,0 1.231029,-1.26412 2.550514,-2.809156 2.411295,-2.823478 7.861374,-8.121429 10.046312,-9.765889 0.645102,-0.485526 1.131338,-1.002579 1.080526,-1.149007 -0.05081,-0.146428 -1.395061,-1.98478 -2.98722,-4.085227 -2.669373,-3.521557 -2.860077,-3.848965 -2.448565,-4.203806 1.075739,-0.927594 6.43847,-4.455426 9.061771,-5.961217 3.768002,-2.162857 9.83386,-5.0356 10.071329,-4.769703 0.103178,0.115529 0.980809,2.150331 1.950291,4.521782 0.969482,2.37145 1.802768,4.354877 1.851746,4.407615 0.04898,0.05274 1.594208,-0.446785 3.433838,-1.110051 8.16955,-2.945473 16.39215,-4.318117 25.94868,-4.331761 8.21889,-0.01174 15.6156,1.224478 23.51852,3.930648 2.08401,0.713618 4.02829,1.362242 4.32063,1.441387 0.473,0.128055 0.72582,-0.325843 2.29603,-4.122175 0.97047,-2.346341 1.86133,-4.422733 1.97968,-4.614204 0.27458,-0.444237 7.45996,2.97311 11.60366,5.518669 2.96541,1.821718 7.64553,5.014697 7.86077,5.362962 0.0695,0.112414 -1.21809,1.944849 -2.86126,4.072076 -1.64316,2.127228 -2.98757,3.899547 -2.98757,3.938487 0,0.03894 1.50076,1.3669 3.33503,2.951022 2.83826,2.451194 5.15174,4.84075 9.62785,9.944447 l 0.81164,0.925443 3.81564,-2.920656 c 2.0986,-1.606362 3.92713,-2.920657 4.06341,-2.920657 0.34655,0 3.52982,4.534589 5.59505,7.970165 2.22559,3.702334 5.80669,11.084792 5.51215,11.363318 -0.12475,0.11797 -2.1671,1.007703 -4.53855,1.977185 -2.37145,0.969482 -4.35721,1.800538 -4.41279,1.846791 -0.0556,0.04625 0.32546,1.234145 0.84676,2.639756 1.33255,3.59306 2.60149,8.20846 3.43276,12.48571 0.39106,2.01214 0.73774,3.687763 0.77041,3.723613 0.0327,0.0358 2.2098,-0.23427 4.83807,-0.60025 2.62827,-0.365993 4.84712,-0.596983 4.93078,-0.513323 0.60112,0.601123 0.97967,11.473808 0.59006,16.947438 -0.36133,5.07628 -0.5428,5.7969 -1.39731,5.5487 -0.93877,-0.27268 -8.78273,-1.315 -8.91181,-1.18422 -0.0647,0.0656 -0.5446,2.21462 -1.06642,4.77569 -3.45283,16.94602 -12.73513,32.53623 -25.68687,43.14268 -1.18572,0.97101 -2.15586,1.8278 -2.15586,1.90398 0,0.0762 1.36248,1.89814 3.02773,4.04882 1.66525,2.15069 2.98817,3.94411 2.93982,3.98539 -0.61062,0.52124 -5.18216,3.62604 -7.17471,4.87275 -3.25772,2.03831 -11.75133,6.34401 -12.18568,6.17733 -0.17965,-0.0689 -1.14971,-2.14435 -2.15568,-4.61203 -1.37813,-3.38057 -1.92569,-4.45699 -2.22103,-4.36622 -0.21559,0.0663 -1.80309,0.61086 -3.52778,1.21021 -3.61738,1.2571 -8.9004,2.65313 -12.25346,3.23797 -1.27788,0.22288 -2.39154,0.47338 -2.47482,0.55665 -0.0833,0.0833 0.11845,2.2726 0.44827,4.86517 0.32982,2.59258 0.5261,4.78735 0.43618,4.87727 -0.53889,0.53889 -14.00576,0.95898 -18.16748,0.56672 z m 15.48319,-25.73122 c 5.65055,-0.74072 12.05169,-2.70403 17.83451,-5.47006 5.11776,-2.44791 9.89485,-5.68983 14.50328,-9.84248 2.12626,-1.91596 6.61837,-6.82795 6.73671,-7.36639 0.0402,-0.183 -1.67974,-1.66948 -3.82214,-3.30329 l -3.89528,-2.97057 1.89921,-2.82315 c 1.04456,-1.55273 2.52934,-4.11722 3.29951,-5.69887 0.77017,-1.58165 1.52974,-2.88158 1.68794,-2.88872 0.1582,-0.007 2.25712,0.81811 4.66425,1.8339 2.40713,1.0158 4.4129,1.80955 4.45725,1.76389 0.0444,-0.0457 0.6211,-1.67796 1.28166,-3.62734 2.55756,-7.54769 3.48608,-14.38497 3.04966,-22.4567 -0.36277,-6.70971 -1.22744,-11.104198 -3.3421,-16.985598 -3.87711,-10.783166 -10.30635,-19.806781 -19.15628,-26.886347 -4.45157,-3.561069 -9.5453,-6.571254 -14.89125,-8.800128 -3.60578,-1.503345 -10.31582,-3.375396 -13.13311,-3.664035 l -1.67023,-0.17112 -0.61597,4.800421 -0.61598,4.800421 h -6.72092 -6.72092 l -0.28222,-2.221194 c -0.15521,-1.221656 -0.42582,-3.367721 -0.60134,-4.769033 -0.37102,-2.962169 -0.16049,-2.844347 -3.8364,-2.147038 -6.25858,1.187232 -13.21563,3.868669 -19.503524,7.517195 -7.01396,4.069821 -14.74039,11.504917 -19.450052,18.716665 -3.165657,4.847465 -4.917296,8.504023 -6.779416,14.152063 -2.163668,6.56268 -2.932472,11.304528 -2.962298,18.270898 -0.03185,7.43806 0.871699,13.19952 3.114568,19.86009 0.653367,1.94027 1.222072,3.56707 1.263789,3.6151 0.04172,0.048 2.062596,-0.74572 4.490842,-1.76389 2.428246,-1.01817 4.538554,-1.85121 4.689574,-1.85121 0.151021,0 0.600723,0.73495 0.999338,1.63323 0.955665,2.15358 2.464289,4.7794 4.323981,7.52605 l 1.512851,2.23439 -3.898399,2.96027 c -2.14412,1.62815 -3.8984,3.05603 -3.8984,3.17305 0,0.11703 0.726171,1.07203 1.613714,2.12222 5.547598,6.56421 12.608576,11.96617 20.398572,15.60579 10.4485,4.88172 22.24224,6.65956 33.97502,5.12152 z m -12.87002,-9.40155 c -0.21559,-0.0502 -1.83249,-0.29854 -3.59311,-0.55188 l -3.20113,-0.46063 5.7e-4,-0.93545 c 3.1e-4,-0.5145 0.23977,-7.63823 0.53212,-15.83051 l 0.53156,-14.89506 -0.59745,-0.44856 c -4.78866,-3.59523 -7.1356,-6.74843 -8.6718,-11.65084 -0.4116,-1.31353 -0.67977,-2.78021 -0.67977,-3.71774 0,-1.32027 -0.0866,-1.60371 -0.58797,-1.92387 -0.32338,-0.20652 -6.52639,-3.51127 -13.784462,-7.3439 -7.258076,-3.832628 -13.311228,-7.079568 -13.451448,-7.215428 -0.291622,-0.28255 0.15817,-1.68538 1.750641,-5.45996 1.172714,-2.77965 2.504309,-5.19648 4.4633,-8.100828 1.319115,-1.955687 4.555234,-6.010289 4.79702,-6.010289 0.07017,0 6.130654,3.748964 13.467739,8.331027 l 13.34015,8.33103 1.70702,-0.77399 c 5.36771,-2.43384 11.48818,-2.4261 16.88595,0.0214 l 1.6324,0.74017 11.47882,-7.17625 c 15.17853,-9.489218 15.23609,-9.523868 15.5243,-9.345741 0.54964,0.339694 3.43096,4.081183 5.13462,6.667463 2.07901,3.156098 3.65837,6.277368 5.07878,10.037118 l 0.99583,2.63591 -0.83312,0.43859 c -0.45821,0.24123 -6.71275,3.549713 -13.89896,7.352208 l -13.06584,6.9136 -0.28646,1.92456 c -0.50765,3.41055 -1.38556,6.02892 -2.8847,8.60362 -1.11991,1.92338 -3.93052,4.93046 -5.71606,6.11564 -1.36134,0.90361 -1.43462,1.00851 -1.43132,2.04899 0.002,0.60315 0.23553,7.09385 0.51915,14.42379 0.28362,7.32994 0.51724,13.97859 0.51916,14.77479 l 0.003,1.44762 -2.6785,0.4839 c -2.42739,0.43854 -11.7793,0.83384 -13.00051,0.54953 z M 21.83389,138.16792 c -4.015636,-7.00194 -8.494908,-14.72987 -9.953938,-17.17319 L 9.2271687,116.55235 8.0047847,81.274558 C 7.3324737,61.871779 6.7107317,44.641124 6.6231367,42.984212 L 6.4638727,39.971646 40.282547,22.013532 74.101222,4.0554182 h 19.903733 19.903735 l 0.14413,0.84928 c 0.21434,1.262897 1.97009,14.5974718 1.97009,14.9623858 0,0.197811 -0.89538,0.438883 -2.41719,0.650807 -3.63763,0.50657 -11.88171,2.638137 -16.144244,4.174214 -2.07964,0.749434 -3.944553,1.381053 -4.144252,1.403599 -0.236945,0.02675 -0.999508,-1.502373 -2.194946,-4.401396 -1.007521,-2.443313 -1.87416,-4.492478 -1.925864,-4.5537 -0.150773,-0.178528 -4.904093,2.022469 -8.451286,3.913319 -3.961746,2.11183 -6.68716,3.7908 -10.915985,6.724708 -2.893045,2.007159 -3.174559,2.271183 -2.874485,2.695893 0.182958,0.25895 1.558365,2.069382 3.056461,4.02318 l 2.723809,3.552361 -1.023912,0.837552 c -5.422777,4.435788 -10.583889,9.518577 -13.918631,13.707409 -0.94396,1.185725 -1.839601,2.148571 -1.990313,2.139656 -0.150712,-0.0089 -1.979115,-1.348994 -4.063117,-2.977954 l -3.789094,-2.961746 -0.459794,0.560773 c -0.252887,0.308425 -1.68038,2.383458 -3.172207,4.611185 -3.27604,4.892068 -5.855825,9.453911 -7.88469,13.942525 -1.241066,2.745704 -1.445416,3.387983 -1.138831,3.579373 0.205496,0.128284 2.29002,1.019259 4.632277,1.979944 3.45069,1.415313 4.225289,1.825694 4.082818,2.163067 -0.726784,1.72103 -3.13428,8.975139 -3.767097,11.350769 -0.818903,3.0742 -2.091859,9.4811 -2.091859,10.5285 0,0.76501 0.08474,0.76497 -5.567997,0.003 -2.415638,-0.32579 -4.434693,-0.52337 -4.486788,-0.43908 -0.0521,0.0843 -0.246433,1.62023 -0.431865,3.413208 -0.444892,4.30176 -0.440366,15.47464 0.0079,19.40214 l 0.351088,3.07634 0.817452,-0.13463 c 0.988182,-0.16275 8.793613,-1.18369 9.049721,-1.18369 0.09973,0 0.323653,1.01736 0.497603,2.26082 0.665408,4.75654 2.585315,12.07201 4.669041,17.79054 0.588224,1.61431 0.989106,2.98235 0.890848,3.04009 -0.09826,0.0577 -2.942075,1.24982 -6.319596,2.64906 -3.377521,1.39924 -6.434928,2.69153 -6.794239,2.87176 -1.711562,0.85851 -1.104707,1.67391 -8.999715,-12.09238 z m 197.53983,9.85319 c -3.73683,-1.56159 -7.05513,-2.95609 -7.374,-3.09889 l -0.57977,-0.25963 0.67361,-1.77323 c 2.49204,-6.56014 5.31816,-17.46257 5.31988,-20.52271 2.3e-4,-0.39524 0.0886,-0.71856 0.1964,-0.71849 0.10779,8e-5 2.3685,0.28721 5.0238,0.63807 2.65529,0.35086 4.84846,0.61538 4.87369,0.58782 0.0252,-0.0276 0.19939,-1.40241 0.38701,-3.05524 0.44755,-3.94264 0.45587,-16.22895 0.0135,-19.986575 -0.18584,-1.578683 -0.35936,-2.885583 -0.38561,-2.904243 -0.0263,-0.0187 -2.0468,0.23877 -4.49011,0.57208 -2.44331,0.3333 -4.67954,0.61127 -4.9694,0.61771 -0.4718,0.0105 -0.57466,-0.29631 -0.98162,-2.9281 -0.61038,-3.94731 -2.51266,-11.39755 -3.85321,-15.09105 -0.59989,-1.652829 -1.2458,-3.432606 -1.43536,-3.95506 l -0.34464,-0.949915 4.55086,-1.891084 c 2.50297,-1.040096 4.55086,-1.989072 4.55086,-2.108836 0,-0.119764 -0.47967,-1.310759 -1.06593,-2.646655 -2.1208,-4.832618 -5.66488,-11.004619 -9.45277,-16.461968 l -2.31942,-3.341666 -3.93272,3.003723 c -2.16299,1.652048 -4.00752,2.998101 -4.09894,2.991229 -0.0914,-0.0069 -0.93058,-0.967924 -1.86479,-2.135671 -3.18772,-3.984607 -10.0842,-10.772872 -14.21207,-13.989061 l -0.75425,-0.587669 3.02335,-3.972597 c 1.66284,-2.184929 2.97057,-4.057994 2.90606,-4.162369 -0.28211,-0.456462 -10.18235,-6.842715 -12.86252,-8.297105 -4.04477,-2.194884 -9.23362,-4.541121 -9.48456,-4.288627 -0.11366,0.114365 -0.9893,2.089418 -1.94586,4.389007 -0.95656,2.299589 -1.79076,4.265486 -1.85379,4.368661 -0.063,0.103175 -1.25652,-0.227948 -2.65221,-0.735828 -6.84463,-2.490718 -13.72837,-4.282461 -19.0659,-4.962592 -0.75455,-0.09615 -1.37191,-0.254686 -1.37191,-0.352306 0,-0.09762 0.47037,-3.691617 1.04527,-7.98666 0.57489,-4.2950418 1.04527,-7.8453918 1.04527,-7.8896658 0,-0.04428 8.96963,-0.0805 19.93251,-0.0805 h 19.93252 l 33.80632,17.9522238 33.80632,17.952224 -0.15943,3.671749 c -0.0877,2.019461 -0.70642,19.19318 -1.37498,38.163819 l -1.21555,34.492077 -9.80314,16.98736 c -5.39172,9.34304 -9.93486,17.12194 -10.09585,17.28643 -0.21882,0.22356 -2.00799,-0.41773 -7.08696,-2.54019 z"
       id="path1" /></g></svg>
