<?xml version="1.0" encoding="UTF-8"?>
<svg version="1.1" xmlns="http://www.w3.org/2000/svg" width="1530" height="1530">
<path d="M0 0 C21.10781287 18.07930059 38.4819601 39.33168315 46.6953125 66.30859375 C46.99864502 67.28723389 46.99864502 67.28723389 47.30810547 68.28564453 C55.11530915 93.93296831 54.82668183 118.39488185 48.6953125 144.30859375 C48.44265625 145.41203125 48.19 146.51546875 47.9296875 147.65234375 C41.65646121 171.02318679 28.20271593 190.18541917 11.6953125 207.30859375 C11.11652344 207.96214844 10.53773438 208.61570312 9.94140625 209.2890625 C1.39844121 218.67963243 -11.05081958 225.72285257 -22.3046875 231.30859375 C-23.23667969 231.79714844 -24.16867187 232.28570312 -25.12890625 232.7890625 C-31.86304497 236.14319818 -38.65077616 238.47587613 -45.8671875 240.55859375 C-47.14215088 240.92791016 -47.14215088 240.92791016 -48.44287109 241.3046875 C-59.96773822 244.49612135 -71.04046335 245.67367737 -82.9921875 245.62109375 C-83.98005753 245.61835953 -83.98005753 245.61835953 -84.98788452 245.61557007 C-95.45929759 245.56687762 -105.15044625 244.89692976 -115.3046875 242.30859375 C-115.9764502 242.14762207 -116.64821289 241.98665039 -117.34033203 241.82080078 C-133.97191185 237.78220162 -149.53937149 230.47472163 -163.3046875 220.30859375 C-164.06523438 219.75816406 -164.82578125 219.20773437 -165.609375 218.640625 C-177.25026437 209.92031464 -186.84529408 200.10194535 -195.3046875 188.30859375 C-195.90990234 187.46772217 -195.90990234 187.46772217 -196.52734375 186.60986328 C-216.78468853 157.98717109 -224.63545397 120.80088356 -219.3046875 86.24609375 C-212.88298948 50.69740829 -192.99717822 17.98923078 -163.42578125 -2.93359375 C-114.64293561 -36.19725899 -47.14761997 -37.67779887 0 0 Z " fill="#000000" transform="translate(848.3046875,88.69140625)"/>
<path d="M0 0 C0.99 0.33 1.98 0.66 3 1 C1.30046044 6.21401952 -1.84193937 10.4311507 -4.875 14.9375 C-54.43113489 90.00057062 -72.19802215 182.86893974 -55 271 C-54.8045459 272.00691895 -54.6090918 273.01383789 -54.40771484 274.05126953 C-48.8563706 301.84326535 -39.69218164 328.67061784 -27 354 C-26.48679199 355.03592285 -25.97358398 356.0718457 -25.44482422 357.13916016 C-17.8146307 372.4668656 -9.89437118 388.11049705 0.78515625 401.58984375 C1.21344727 402.1314917 1.64173828 402.67313965 2.08300781 403.23120117 C3.21375598 404.62802094 4.3807164 405.99532034 5.55078125 407.359375 C7.09627371 410.17542057 7.39883516 411.812033 6.72827148 414.95947266 C5.08401962 419.56646462 2.41223965 423.65434998 -0.125 427.8125 C-1.41100407 429.96694207 -2.69613094 432.12190794 -3.98046875 434.27734375 C-4.6461084 435.38706543 -5.31174805 436.49678711 -5.99755859 437.64013672 C-9.20275612 443.01808459 -12.31894242 448.44650634 -15.4375 453.875 C-16.69639036 456.06002503 -17.95550615 458.2449202 -19.21484375 460.4296875 C-19.83987793 461.51475586 -20.46491211 462.59982422 -21.10888672 463.71777344 C-24.86028024 470.22871257 -28.61690994 476.73663194 -32.37255859 483.24511719 C-35.51182246 488.68585336 -38.64981497 494.12731477 -41.78515625 499.5703125 C-48.40222892 511.0544882 -55.04633977 522.52196894 -61.73291016 533.96582031 C-67.89323484 544.51600309 -73.99323865 555.1007623 -80.09130859 565.68701172 C-83.30878669 571.27171084 -86.5293145 576.85465015 -89.75 582.4375 C-90.6771582 584.0447998 -90.6771582 584.0447998 -91.62304688 585.68457031 C-97.07200899 595.12885769 -102.53365854 604.56576451 -108 614 C-109.86386353 613.89498169 -109.86386353 613.89498169 -111.76538086 613.7878418 C-124.37010518 613.11246106 -136.94386767 612.81366662 -149.56616211 612.81469727 C-152.56443246 612.81249858 -155.56234033 612.79420118 -158.56054688 612.77539062 C-176.02816238 612.72337016 -193.04268806 614.20280751 -210.25 617.25 C-211.4774292 617.46615967 -212.7048584 617.68231934 -213.96948242 617.9050293 C-271.52621405 628.34181462 -326.28837032 653.12115646 -371 691 C-372.04334146 691.85920272 -373.08766042 692.71721943 -374.1328125 693.57421875 C-381.87823858 699.96756109 -388.99510785 706.80968423 -396 714 C-398.21701882 716.23013727 -400.43316743 718.45656877 -402.703125 720.6328125 C-407.0021862 724.77988669 -410.78299384 729.24672385 -414.515625 733.90625 C-416.19217796 735.99403293 -417.88028522 738.05143777 -419.609375 740.09375 C-435.13586427 758.65059863 -448.01527118 779.49245526 -459 801 C-459.38816895 801.75812988 -459.77633789 802.51625977 -460.17626953 803.29736328 C-462.15554268 807.18008538 -464.09926899 811.0780691 -466 815 C-467.32 814.67 -468.64 814.34 -470 814 C-463.82429245 781.00872018 -452.85901171 749.50217482 -439 719 C-438.63438965 718.18370117 -438.2687793 717.36740234 -437.89208984 716.52636719 C-420.66436396 678.16375856 -396.47607171 642.87030314 -368 612 C-367.18660156 611.09507812 -366.37320313 610.19015625 -365.53515625 609.2578125 C-356.16540983 598.8836733 -346.4909261 588.54549318 -335.796875 579.51953125 C-333.77663789 577.81111335 -331.83121387 576.03129693 -329.875 574.25 C-314.15866248 560.28291238 -296.79269324 548.14459063 -279 537 C-278.11272217 536.44046631 -278.11272217 536.44046631 -277.20751953 535.86962891 C-232.65610435 507.91805314 -169.14143601 475.96982468 -115 477 C-115.4125 475.86949219 -115.825 474.73898437 -116.25 473.57421875 C-126.49083472 445.1347989 -134.32434127 416.19213223 -139.25 386.375 C-139.3750592 385.63010315 -139.50011841 384.8852063 -139.62896729 384.11773682 C-143.08535854 363.32946302 -144.36441248 342.62106355 -144.25 321.5625 C-144.24689819 320.53585236 -144.24379639 319.50920471 -144.24060059 318.45144653 C-144.18789543 303.54095641 -143.82384754 288.81154864 -142 274 C-141.8146167 272.329375 -141.8146167 272.329375 -141.62548828 270.625 C-130.66868812 172.02707955 -84.15874115 83.24141598 -14.5625 13.4375 C-13.69794189 12.56834961 -12.83338379 11.69919922 -11.94262695 10.80371094 C-11.11722412 9.98032227 -10.29182129 9.15693359 -9.44140625 8.30859375 C-8.70607666 7.57439209 -7.97074707 6.84019043 -7.21313477 6.08374023 C-4.88197693 3.88887734 -2.6354736 1.82435327 0 0 Z " fill="#000000" transform="translate(483,109)"/>
<path d="M0 0 C2.91834217 1.31483573 4.94920929 2.71633276 7.171875 5.01171875 C7.74977783 5.60114258 8.32768066 6.19056641 8.9230957 6.79785156 C9.82741333 7.73322754 9.82741333 7.73322754 10.75 8.6875 C16.35206982 14.40847706 16.35206982 14.40847706 22.3125 19.75 C26.11538066 22.97962264 29.36449717 26.60107213 32.65625 30.34375 C35.01932267 33.02189903 37.4435795 35.63391465 39.875 38.25 C45.12736493 44.02272307 49.91788022 50.09551792 54.66943359 56.27978516 C55.90657136 57.87921134 57.16534315 59.46183948 58.42578125 61.04296875 C87.49672073 97.82175143 109.21482302 140.65142352 124 185 C124.51771973 186.54324951 124.51771973 186.54324951 125.04589844 188.11767578 C130.91579069 205.81829453 135.23708155 223.75506065 139 242 C139.17901855 242.85432617 139.35803711 243.70865234 139.54248047 244.58886719 C140.5893666 249.70272 141.35014751 254.82176364 142 260 C142.13390137 261.00208496 142.26780273 262.00416992 142.40576172 263.03662109 C147.50718 302.77489064 147.52919901 344.45201315 141 384 C140.81276367 385.21204102 140.62552734 386.42408203 140.43261719 387.67285156 C135.7218414 418.06101659 127.69914708 448.49735423 116 477 C116.71542969 477.0424585 117.43085937 477.08491699 118.16796875 477.12866211 C125.94573995 477.67262816 133.38961818 478.89332262 141 480.5625 C142.20551514 480.82498535 143.41103027 481.0874707 144.65307617 481.35791016 C209.62646719 495.87696245 270.96068946 524.88899325 322.21337891 567.52197266 C323.86404442 568.88752731 325.52706212 570.23512326 327.19921875 571.57421875 C331.78649255 575.26030916 336.14779278 578.98084944 340.22509766 583.22583008 C341.96502508 584.96503951 343.7680135 586.55781166 345.640625 588.15234375 C350.31662222 592.21721523 354.69402332 596.54679188 359.0625 600.9375 C359.82626953 601.69740234 360.59003906 602.45730469 361.37695312 603.24023438 C366.12532071 607.99672577 370.63584545 612.89023152 375 618 C375.88903046 619.02108804 376.77833206 620.0419401 377.66796875 621.0625 C394.83850856 641.08148594 410.05538714 663.01961673 423 686 C423.48533203 686.85996582 423.97066406 687.71993164 424.47070312 688.60595703 C444.4895588 724.30787126 459.47723093 762.47013447 469.1875 802.25 C469.39608643 803.09473877 469.60467285 803.93947754 469.81958008 804.80981445 C470.68682711 808.58184516 471.13684427 811.29922002 470 815 C469.01 815 468.02 815 467 815 C466.76514893 814.47905762 466.53029785 813.95811523 466.28833008 813.42138672 C451.71643359 781.35832572 432.23309864 750.3688414 407.74609375 724.88671875 C405.6439505 722.67692662 403.65018378 720.44605183 401.66796875 718.1328125 C397.97358257 713.88489626 393.99360116 710.02059272 389.875 706.1875 C388.75532837 705.14275513 388.75532837 705.14275513 387.61303711 704.0769043 C375.72335321 693.04748223 363.29789052 683.28912128 350 674 C349.36336426 673.55269531 348.72672852 673.10539063 348.07080078 672.64453125 C326.60257939 657.64389282 303.28492136 645.69615927 279 636 C278.24380371 635.69707031 277.48760742 635.39414062 276.70849609 635.08203125 C232.00801383 617.38346123 186.15429027 612.2884637 138.5 612.76171875 C137.58770126 612.76929199 136.67540253 612.77686523 135.73545837 612.78466797 C130.50793153 612.86051719 125.37936962 613.21516839 120.18261719 613.78132629 C116.44091283 614.15620301 112.75580039 614.06057743 109 614 C108.51926025 613.14341797 108.51926025 613.14341797 108.02880859 612.26953125 C101.24037143 600.18625718 94.37311092 588.15439352 87.37231445 576.19287109 C81.16403197 565.58353211 75.02671226 554.93371497 68.89111328 544.28222656 C65.76319854 538.85340062 62.63146269 533.42677993 59.5 528 C55.73636081 521.47766725 51.97355378 514.95486238 48.21484375 508.4296875 C41.59858883 496.94693103 34.95609989 485.48039099 28.26928711 474.03857422 C23.35887392 465.6303797 18.48141053 457.20337563 13.640625 448.75488281 C10.45713513 443.20885556 7.22746076 437.69921894 3.90625 432.234375 C3.25076172 431.14511719 2.59527344 430.05585937 1.91992188 428.93359375 C0.66944928 426.86007357 -0.59426644 424.79446418 -1.87304688 422.73828125 C-2.43056641 421.80886719 -2.98808594 420.87945313 -3.5625 419.921875 C-4.05878906 419.11331055 -4.55507812 418.30474609 -5.06640625 417.47167969 C-6.28427738 414.24737862 -5.88807172 412.29547821 -5 409 C-3.52482083 406.769739 -2.04387515 404.759804 -0.375 402.6875 C32.93762152 359.1681499 53.19497024 303.04808381 60 249 C60.09764648 248.22688477 60.19529297 247.45376953 60.29589844 246.65722656 C65.65388647 202.33205283 62.49740186 158.12044223 51 115 C50.73848145 114.00403809 50.47696289 113.00807617 50.20751953 111.98193359 C40.56420713 75.68221447 24.5044496 40.36718368 2.61914062 9.78344727 C2.13123047 9.08276123 1.64332031 8.3820752 1.140625 7.66015625 C0.70266602 7.04793213 0.26470703 6.43570801 -0.18652344 5.80493164 C-1.22797231 3.49417788 -0.83668219 2.33826243 0 0 Z " fill="#000000" transform="translate(1045,109)"/>
<path d="M0 0 C3.56324983 0.78034476 5.39639037 1.92647177 8.1875 4.3125 C20.29568288 14.21596236 32.76642313 22.49367211 47 29 C48.49660156 29.70382812 48.49660156 29.70382812 50.0234375 30.421875 C56.59989446 33.47455703 63.29272192 36.2491966 70 39 C69.41086447 42.97510033 68.17954805 45.80697025 66.1484375 49.26171875 C65.25415039 50.79602539 65.25415039 50.79602539 64.34179688 52.36132812 C63.69275391 53.45896484 63.04371094 54.55660156 62.375 55.6875 C61.69521082 56.84916922 61.01618752 58.01128693 60.33789062 59.17382812 C58.92841697 61.58817446 57.51567013 64.00055922 56.10058594 66.41162109 C52.86944479 71.92318583 49.68727005 77.4629938 46.5 83 C45.25023053 85.16679965 44.00022976 87.3334659 42.75 89.5 C42.13125 90.5725 41.5125 91.645 40.875 92.75 C-21 200 -82.875 307.25 -159.75 440.5 C-160.36883057 441.57266113 -160.98766113 442.64532227 -161.62524414 443.75048828 C-162.87435518 445.91557071 -164.12354129 448.08060982 -165.37280273 450.24560547 C-168.51202309 455.68615706 -171.64990563 461.12747216 -174.78515625 466.5703125 C-180.80747329 477.02206199 -186.84669337 487.46299548 -192.9375 497.875 C-198.35958699 507.14563931 -203.70324012 516.45936699 -209.02023315 525.79046631 C-214.19378787 534.86778636 -219.43142154 543.90571533 -224.7109375 552.921875 C-229.19166146 560.5857377 -233.60506752 568.28678835 -238 576 C-243.51263835 585.67481219 -249.08424567 595.31282137 -254.7109375 604.921875 C-259.19166487 612.58574354 -263.60471122 620.28698731 -268 628 C-273.19053339 637.10591262 -278.41038711 646.19386603 -283.6875 655.25 C-284.25146484 656.219375 -284.81542969 657.18875 -285.39648438 658.1875 C-288.50939038 663.51745756 -291.70002464 668.78371242 -295 674 C-299.56901354 673.1131977 -302.39852872 670.42828252 -305.875 667.5 C-321.4501061 654.75173968 -338.79419063 644.52468486 -358.02026367 638.38232422 C-363.76827228 636.46048295 -363.76827228 636.46048295 -364.89453125 634.22241211 C-365.04307199 631.0923974 -363.94240265 629.51774911 -362.34375 626.8359375 C-361.43979492 625.29679688 -361.43979492 625.29679688 -360.51757812 623.7265625 C-359.85177734 622.62054687 -359.18597656 621.51453125 -358.5 620.375 C-357.81054051 619.20910611 -357.12241009 618.04242533 -356.43554688 616.875 C-355.00644609 614.44840771 -353.57166338 612.0253149 -352.1328125 609.60449219 C-348.86801075 604.10085338 -345.68828105 598.54818441 -342.5 593 C-341.25040465 590.83309993 -340.00040319 588.66643401 -338.75 586.5 C-337.821875 584.89125 -337.821875 584.89125 -336.875 583.25 C-325 562.66666667 -313.125 542.08333333 -301.25 521.5 C-300.63116943 520.42733887 -300.01233887 519.35467773 -299.37475586 518.24951172 C-298.12564482 516.08442929 -296.87645871 513.91939018 -295.62719727 511.75439453 C-292.48797691 506.31384294 -289.35009437 500.87252784 -286.21484375 495.4296875 C-280.19252671 484.97793801 -274.15330663 474.53700452 -268.0625 464.125 C-262.64041301 454.85436069 -257.29675988 445.54063301 -251.97976685 436.20953369 C-246.80621213 427.13221364 -241.56857846 418.09428467 -236.2890625 409.078125 C-231.80833854 401.4142623 -227.39493248 393.71321165 -223 386 C-217.48736165 376.32518781 -211.91575433 366.68717863 -206.2890625 357.078125 C-201.80833735 349.41426026 -197.39505776 341.71314165 -193 334 C-187.46014067 324.27875494 -181.86625068 314.59105132 -176.21655273 304.93310547 C-170.06233258 294.40915375 -163.97630004 283.84619863 -157.89111328 273.28222656 C-154.76319852 267.85340058 -151.63141552 262.42680719 -148.5 257 C-147.24998121 254.83334417 -145.99998122 252.6666775 -144.75 250.5 C-107.25 185.5 -69.75 120.5 -32.25 55.5 C-31.6305249 54.42621094 -31.0110498 53.35242188 -30.37280273 52.24609375 C-29.13023981 50.0923828 -27.88756511 47.93873633 -26.64477539 45.78515625 C-23.74685377 40.76315738 -20.84996651 35.74057193 -17.95724487 30.71557617 C-16.94052802 28.94954478 -15.92344342 27.18372569 -14.90625 25.41796875 C-13.63599127 23.21265845 -12.36640982 21.00695784 -11.09765625 18.80078125 C-7.46359212 12.49366105 -3.76901741 6.22744663 0 0 Z " fill="#000000" transform="translate(645,323)"/>
<path d="M0 0 C2.87186401 1.26275168 3.52331948 2.86949221 4.99536133 5.6171875 C5.54184326 6.61806396 6.0883252 7.61894043 6.65136719 8.65014648 C7.23152588 9.74141846 7.81168457 10.83269043 8.40942383 11.95703125 C9.66658348 14.26278571 10.92574841 16.5674478 12.18676758 18.87109375 C12.66742424 19.75428535 12.66742424 19.75428535 13.15779114 20.65531921 C16.31568797 26.44841519 19.62742555 32.14529012 22.97192383 37.83203125 C24.13892484 39.8227207 25.30558828 41.81360808 26.47192383 43.8046875 C27.05586914 44.80129395 27.63981445 45.79790039 28.24145508 46.82470703 C31.33879421 52.12780375 34.40556241 57.4484806 37.47192383 62.76953125 C38.09446045 63.84968506 38.71699707 64.92983887 39.35839844 66.04272461 C40.62019209 68.23249459 41.88182917 70.4223548 43.14331055 72.61230469 C46.27122529 78.04113063 49.40296114 83.46775132 52.53442383 88.89453125 C56.29806302 95.416864 60.06087005 101.93966887 63.81958008 108.46484375 C69.84189711 118.91659324 75.8811172 129.35752673 81.97192383 139.76953125 C87.3936356 149.03952902 92.73647298 158.35284877 98.0536499 167.6829834 C103.25487512 176.80735965 108.5147026 185.89585899 113.81787109 194.96142578 C119.97209124 205.4853775 126.05812379 216.04833262 132.14331055 226.61230469 C135.27122531 232.04113067 138.40300831 237.46772406 141.53442383 242.89453125 C142.78444262 245.06118708 144.03444261 247.22785375 145.28442383 249.39453125 C145.90317383 250.46703125 146.52192383 251.53953125 147.15942383 252.64453125 C182.78442383 314.39453125 182.78442383 314.39453125 184.65966797 317.64501953 C185.90877901 319.81010196 187.15796512 321.97514107 188.40722656 324.14013672 C191.54644692 329.58068831 194.68432946 335.02200341 197.81958008 340.46484375 C203.84189711 350.91659324 209.8811172 361.35752673 215.97192383 371.76953125 C221.3936356 381.03952902 226.73647298 390.35284877 232.0536499 399.6829834 C237.25487512 408.80735965 242.5147026 417.89585899 247.81787109 426.96142578 C253.97209124 437.4853775 260.05812379 448.04833262 266.14331055 458.61230469 C269.27122531 464.04113067 272.40300831 469.46772406 275.53442383 474.89453125 C276.78444262 477.06118708 278.03444261 479.22785375 279.28442383 481.39453125 C279.90317383 482.46703125 280.52192383 483.53953125 281.15942383 484.64453125 C316.78442382 546.39453124 316.78442382 546.39453124 318.65966797 549.64501953 C319.90877901 551.81010196 321.15796512 553.97514107 322.40722656 556.14013672 C325.54644692 561.58068831 328.68432946 567.02200341 331.81958008 572.46484375 C337.99497868 583.18294524 344.18422471 593.89276466 350.40942383 604.58203125 C350.98515137 605.57388428 351.56087891 606.5657373 352.15405273 607.58764648 C354.69271487 611.94755466 357.25382612 616.28275287 359.94458008 620.55078125 C360.59257568 621.58779175 360.59257568 621.58779175 361.25366211 622.64575195 C362.03459275 623.88694652 362.82755417 625.12070004 363.63549805 626.34448242 C365.20235372 628.83952569 366.02021984 630.65340987 366.19458008 633.61328125 C364.73027956 636.49257923 363.11187357 637.05014653 360.12109375 638.06030273 C359.08819214 638.38043335 359.08819214 638.38043335 358.03442383 638.70703125 C356.57011561 639.20884754 355.10792945 639.71689022 353.64770508 640.23046875 C352.88796387 640.49698242 352.12822266 640.76349609 351.34545898 641.03808594 C340.62623191 645.01051871 330.39705506 650.35509343 321.03442383 656.89453125 C320.1346582 657.52101563 319.23489258 658.1475 318.30786133 658.79296875 C312.40536847 662.99953408 306.87226281 667.50050882 301.44458008 672.3046875 C299.03442383 673.89453125 299.03442383 673.89453125 297.05517578 673.76171875 C294.30735384 672.58251571 293.70372913 671.22589641 292.29223633 668.609375 C291.79103271 667.69905518 291.2898291 666.78873535 290.7734375 665.85083008 C290.24081299 664.85462646 289.70818848 663.85842285 289.15942383 662.83203125 C287.99314244 660.70870772 286.82511985 658.58633983 285.65551758 656.46484375 C285.05594238 655.37075195 284.45636719 654.27666016 283.83862305 653.14941406 C281.05029435 648.11910309 278.13836012 643.16380871 275.22192383 638.20703125 C270.10050011 629.46934601 265.04794745 620.69436923 260.03442383 611.89453125 C254.49473483 602.17319026 248.9006732 592.48558033 243.25097656 582.82763672 C237.09675641 572.303685 231.01072387 561.74072988 224.92553711 551.17675781 C221.79762235 545.74793183 218.66583935 540.32133844 215.53442383 534.89453125 C214.28440504 532.72787542 213.03440504 530.56120875 211.78442383 528.39453125 C211.16567383 527.32203125 210.54692383 526.24953125 209.90942383 525.14453125 C148.03442383 417.89453125 86.15942383 310.64453125 -37.5925293 96.14111328 C-38.83598127 93.98581814 -40.07947053 91.83054452 -41.32299805 89.67529297 C-44.21020492 84.67115451 -47.09708048 79.66682605 -49.98254395 74.66168213 C-50.99176721 72.91111884 -52.00111454 71.16062714 -53.01049805 69.41015625 C-54.26725277 67.2306096 -55.52378203 65.05093293 -56.7800293 62.87109375 C-57.35688477 61.87078125 -57.93374023 60.87046875 -58.52807617 59.83984375 C-59.08624023 58.86563477 -59.6444043 57.89142578 -60.21948242 56.88769531 C-61.44939442 54.77937301 -62.71023571 52.68894324 -63.99291992 50.61230469 C-64.64389648 49.54786133 -65.29487305 48.48341797 -65.96557617 47.38671875 C-66.56370117 46.42878418 -67.16182617 45.47084961 -67.77807617 44.48388672 C-68.96557617 41.89453125 -68.96557617 41.89453125 -68.87011719 39.65380859 C-67.18943919 36.38499195 -63.2035266 35.77315296 -59.90307617 34.64453125 C-39.1832218 27.08352209 -20.91295046 16.12188316 -4.37573242 1.484375 C-1.96557617 -0.10546875 -1.96557617 -0.10546875 0 0 Z " fill="#000000" transform="translate(882.965576171875,323.10546875)"/>
<path d="M0 0 C0.76292185 0.00223072 1.52584371 0.00446144 2.3118844 0.00675976 C3.11649308 0.00519977 3.92110175 0.00363978 4.75009251 0.00203252 C7.46711915 -0.00198081 10.18409067 0.00121344 12.9011178 0.00434887 C14.84050514 0.00299498 16.77989222 0.00121512 18.71927881 -0.00096118 C24.00218248 -0.00553694 29.28506672 -0.00374538 34.56797075 -0.0005821 C40.08352065 0.00194077 45.59906882 -0.00039583 51.11461878 -0.00196826 C60.37890406 -0.00379017 69.64318138 -0.00138309 78.90746546 0.00337231 C89.63485604 0.00881497 100.36222761 0.00705233 111.08961773 0.00154591 C120.28193576 -0.00298462 129.47424806 -0.00363607 138.66656685 -0.00101542 C144.1646196 0.00054769 149.6626634 0.00074019 155.16071558 -0.00255191 C160.32834565 -0.00542975 165.49595111 -0.00345656 170.66357851 0.00234234 C172.56597652 0.00367041 174.46837659 0.00327504 176.37077379 0.00107968 C178.95623431 -0.00162999 181.54161462 0.00174703 184.12706995 0.00675976 C184.8899918 0.00452904 185.65291366 0.00229832 186.43895435 0 C191.60532733 0.01959356 191.60532733 0.01959356 192.71947718 1.13374341 C193.09424527 3.81673788 193.41325252 6.48779299 193.69994593 9.18061841 C193.89221551 10.89596406 194.08536814 12.6112109 194.27929163 14.32637036 C194.38101679 15.23279278 194.48274195 16.13921521 194.58754969 17.07310498 C202.04120777 82.65774775 223.47451092 148.05578357 263.71947718 201.13374341 C264.92837444 202.84167772 266.13668128 204.55003006 267.34447718 206.25874341 C279.5252177 222.95968061 293.54592402 237.99849053 308.09447718 252.63374341 C308.73626917 253.28028882 309.37806116 253.92683423 310.0393014 254.59297192 C326.24953191 270.74669893 344.7990977 284.35823685 363.71947718 297.13374341 C363.18535165 301.55750233 362.1311166 304.66606123 359.86791468 308.49311841 C358.97362757 310.02259106 358.97362757 310.02259106 358.06127405 311.58296216 C357.41223108 312.67221997 356.76318811 313.76147778 356.09447718 314.88374341 C355.4144554 316.04071692 354.73543671 317.19828054 354.0573678 318.35639966 C352.64880394 320.76039489 351.23597077 323.16180114 349.82006311 325.56147778 C346.5793074 331.0620922 343.40281395 336.5997775 340.21947718 342.13374341 C338.96977826 344.30058374 337.71977728 346.4672499 336.46947718 348.63374341 C335.85072718 349.70624341 335.23197718 350.77874341 334.59447718 351.88374341 C332.71947718 355.13374341 330.84447718 358.38374341 328.96947718 361.63374341 C328.35064661 362.70640454 327.73181604 363.77906567 327.09423304 364.88423169 C325.845122 367.04931411 324.59593588 369.21435323 323.34667444 371.37934887 C320.20745408 376.81990046 317.06957155 382.26121556 313.93432093 387.70405591 C307.32314644 399.1779951 300.68590664 410.63581926 294.00414515 422.068802 C288.95603742 430.7127047 283.95030924 439.38067254 278.9558053 448.05561841 C274.901329 455.09594936 270.8200859 462.12018085 266.71947718 469.13374341 C262.8676889 468.59902293 259.66439473 467.85630351 256.16478968 466.16499341 C254.89163904 465.5625581 254.89163904 465.5625581 253.59276819 464.94795239 C252.68583216 464.51426342 251.77889612 464.08057446 250.84447718 463.63374341 C217.88508585 448.34460654 183.45754226 439.0307088 147.71947718 433.13374341 C146.5660885 432.9402229 145.41269983 432.74670239 144.22435999 432.54731762 C73.22613549 421.26047568 -1.94280143 435.18726458 -66.6613822 464.93354809 C-70.51918654 466.70134881 -74.39875057 468.41935423 -78.28052282 470.13374341 C-80.9361807 467.73404659 -82.56050835 465.16930152 -84.32739782 462.06733716 C-84.91722448 461.03785962 -85.50705114 460.00838208 -86.11475134 458.94770825 C-86.74695593 457.83347485 -87.37916052 456.71924145 -88.03052282 455.57124341 C-88.69919795 454.40119021 -89.36839633 453.2314359 -90.03809118 452.06196606 C-91.43005536 449.63019974 -92.81975484 447.19716097 -94.20776892 444.76313794 C-97.40071677 439.16751684 -100.62228366 433.58839927 -103.84302282 428.00874341 C-104.46338415 426.93294018 -105.08374548 425.85713696 -105.72290564 424.74873364 C-109.88749594 417.5312317 -114.07669911 410.32845325 -118.28052282 403.13374341 C-125.02753476 391.58644825 -131.713916 380.00472313 -138.38940954 368.41596997 C-141.51732429 362.987144 -144.64908328 357.56053671 -147.78052282 352.13374341 C-151.28696765 346.05658176 -154.79326983 339.97933868 -158.2974906 333.90089428 C-159.30671386 332.150331 -160.31606119 330.3998393 -161.3254447 328.64936841 C-162.58219942 326.46982176 -163.83872868 324.29014508 -165.09497595 322.11030591 C-165.96025915 320.60983716 -165.96025915 320.60983716 -166.84302282 319.07905591 C-167.40247595 318.10484692 -167.96192907 317.13063794 -168.53833532 316.12690747 C-169.76283018 314.0231649 -171.00971071 311.93237062 -172.27271032 309.85151684 C-173.23564001 308.2548518 -173.23564001 308.2548518 -174.21802282 306.62593091 C-174.80454626 305.66799634 -175.3910697 304.71006176 -175.99536657 303.72309887 C-177.28052282 301.13374341 -177.28052282 301.13374341 -177.28052282 297.13374341 C-174.91651786 295.23404237 -172.64026888 293.62586874 -170.09302282 292.00874341 C-168.61453244 291.03249018 -167.13799501 290.05327343 -165.66333532 289.07124341 C-164.92244665 288.58011059 -164.18155798 288.08897778 -163.41821814 287.58296216 C-150.58589938 278.88348247 -138.66655722 268.61712974 -127.28052282 258.13374341 C-126.39711218 257.32598462 -126.39711218 257.32598462 -125.49585485 256.50190747 C-115.82454812 247.75165986 -115.82454812 247.75165986 -107.00317907 238.16889966 C-105.19972827 236.03829224 -103.30621284 234.00619756 -101.39551306 231.97187817 C-95.76000553 225.94891143 -90.60895407 219.64703478 -85.69067907 213.02388012 C-84.14097607 210.94669858 -82.57020429 208.88631695 -80.99927282 206.82514966 C-36.7572215 148.34342326 -12.02666622 77.79703082 -6.63989782 4.91889966 C-6.10911354 -0.67164353 -5.21380168 0.01977343 0 0 Z " fill="#000000" transform="translate(671.2805228233337,557.8662565946579)"/>
<path d="M0 0 C18.85399122 18.22639651 31.54683451 41.19527289 38.19140625 66.41015625 C38.37074707 67.08030762 38.55008789 67.75045898 38.73486328 68.44091797 C47.45158493 102.72784392 39.33265816 140.39594831 21.6875 170.40234375 C10.93919002 188.03041678 -4.39756506 203.39409005 -21.80859375 214.41015625 C-22.87980469 215.10367187 -23.95101562 215.7971875 -25.0546875 216.51171875 C-53.91250585 234.11872688 -91.43961242 240.70553484 -124.50439453 233.00097656 C-138.31346046 229.46019043 -151.41814322 224.46537007 -163.80859375 217.41015625 C-164.69853027 216.90427979 -164.69853027 216.90427979 -165.60644531 216.38818359 C-198.78346455 197.13088896 -219.1218893 165.78964429 -228.9140625 129.37109375 C-231.29359209 119.30569692 -232.16902752 109.55923142 -232.12109375 99.22265625 C-232.1154541 97.94398682 -232.10981445 96.66531738 -232.10400391 95.34790039 C-231.98048097 85.7002701 -231.25251827 76.75547769 -228.80859375 67.41015625 C-228.60991699 66.62382813 -228.41124023 65.8375 -228.20654297 65.02734375 C-218.94214247 29.16335741 -196.12903482 -0.83970599 -164.43359375 -19.83984375 C-148.09041078 -29.33914775 -129.59731751 -35.47246167 -110.80859375 -37.58984375 C-109.8959375 -37.71230469 -108.98328125 -37.83476563 -108.04296875 -37.9609375 C-68.2709391 -42.46028722 -28.97283678 -26.71625978 0 0 Z " fill="#000000" transform="translate(325.80859375,1023.58984375)"/>
<path d="M0 0 C17.38719077 16.80842159 30.9657403 38.95224397 37.19140625 62.41015625 C37.4855542 63.5079541 37.4855542 63.5079541 37.78564453 64.62792969 C46.53405406 98.86332463 41.23560174 135.8762566 23.90625 166.56640625 C17.6621396 176.92110414 10.56110004 185.74197124 2.19140625 194.41015625 C1.00611328 195.69019531 1.00611328 195.69019531 -0.203125 196.99609375 C-23.27264371 221.25160761 -56.92889216 234.64516707 -90.1484375 235.61328125 C-125.54110287 236.11278718 -157.60319958 225.38262037 -184.80859375 202.41015625 C-185.59363281 201.74886719 -186.37867188 201.08757812 -187.1875 200.40625 C-211.38481567 179.48437469 -225.20162738 150.51129783 -230.80859375 119.41015625 C-231.00195312 118.36085938 -231.1953125 117.3115625 -231.39453125 116.23046875 C-233.13903654 100.13493883 -232.88783833 83.12972499 -228.80859375 67.41015625 C-228.60991699 66.62237793 -228.41124023 65.83459961 -228.20654297 65.02294922 C-218.86799146 28.87890754 -195.69901835 -1.36939896 -163.67211914 -20.39819336 C-147.58317743 -29.57402991 -129.18853785 -35.51852881 -110.80859375 -37.58984375 C-109.8959375 -37.71230469 -108.98328125 -37.83476563 -108.04296875 -37.9609375 C-68.2709391 -42.46028722 -28.97283678 -26.71625978 0 0 Z " fill="#000000" transform="translate(1393.80859375,1023.58984375)"/>
<path d="M0 0 C241.89 0 483.78 0 733 0 C733 7.83461538 733 7.83461538 732.34375 11.7578125 C729.25857512 31.32653143 729.55710342 49.30326005 732.34375 68.90234375 C732.85736163 72.6321103 733.24865359 76.2266817 733 80 C731.3539049 81.6460951 729.45853439 81.12518056 727.18975878 81.12534916 C726.13993974 81.12785268 725.09012069 81.1303562 724.00848895 81.13293558 C722.8386253 81.13059442 721.66876164 81.12825325 720.46344757 81.12584114 C719.22839216 81.12729458 717.99333675 81.12874802 716.72085541 81.13024551 C713.26167614 81.13328734 709.80255041 81.13179329 706.34337475 81.12846755 C702.59183128 81.12594684 698.84029226 81.12918437 695.08874941 81.13171089 C688.50343921 81.13533565 681.9181372 81.13520502 675.33282661 81.13266373 C665.54054831 81.12889504 655.74827696 81.13080777 645.9559987 81.13387203 C628.47118576 81.13914943 610.98637647 81.13867676 593.50156318 81.13579312 C578.20071315 81.13328192 562.89986447 81.13261882 547.59901428 81.13381577 C546.58580865 81.13389215 545.57260302 81.13396854 544.52869419 81.13404724 C540.41621826 81.13435855 536.30374233 81.13467695 532.1912664 81.135007 C493.5783594 81.13806903 454.96545472 81.13528773 416.35254807 81.1299101 C382.01416491 81.12516416 347.67578547 81.12558878 313.33740234 81.13037109 C274.79710378 81.13572061 236.25680727 81.13785191 197.71650839 81.13475883 C193.61133417 81.13443809 189.50615994 81.13412525 185.40098572 81.13381577 C184.39011664 81.13373669 183.37924756 81.13365761 182.33774609 81.13357614 C167.0429583 81.13243655 151.74817199 81.13377287 136.4533844 81.13629532 C119.07021161 81.13914782 101.68704305 81.13845423 84.3038708 81.13301457 C74.56376752 81.13006755 64.82367339 81.12990201 55.08357034 81.13366075 C48.5898495 81.13589126 42.09613604 81.13452924 35.6024163 81.13015598 C31.89433174 81.12776109 28.18626545 81.12699692 24.47818142 81.13056196 C20.49762849 81.13435023 16.51710495 81.13052554 12.53655243 81.12584114 C11.36668877 81.12818231 10.19682512 81.13052347 8.99151105 81.13293558 C7.941692 81.13043207 6.89187296 81.12792855 5.81024122 81.12534916 C4.89844625 81.1252814 3.98665128 81.12521365 3.04722616 81.12514383 C1 81 1 81 0 80 C0.04004105 78.49692069 0.16154658 76.99601596 0.3125 75.5 C0.41046875 74.49453125 0.5084375 73.4890625 0.609375 72.453125 C0.87964985 70.06389531 1.18402473 67.67836787 1.515625 65.296875 C4.16587655 46.11567942 3.32833106 27.514239 0.27539062 8.42749023 C-0.04143736 5.63474145 0 2.81066286 0 0 Z " fill="#000000" transform="translate(398,1082)"/>
<path d="M0 0 C0.94289275 -0.00297112 1.8857855 -0.00594224 2.85725075 -0.0090034 C6.03635817 -0.0177181 9.21542807 -0.01920097 12.39454651 -0.02069092 C14.66580791 -0.02531707 16.93706854 -0.03034145 19.20832825 -0.03573608 C25.39209804 -0.04888012 31.57585696 -0.05530873 37.75963855 -0.05974674 C41.61876304 -0.06267373 45.47788453 -0.06677778 49.33700752 -0.07125092 C60.01628119 -0.08336176 70.6955512 -0.0937436 81.3748312 -0.09712601 C82.05852447 -0.09734557 82.74221774 -0.09756514 83.44662899 -0.09779136 C84.1319794 -0.09800964 84.81732981 -0.09822791 85.52344841 -0.09845281 C86.91228449 -0.09889628 88.30112058 -0.09934284 89.68995667 -0.09979248 C90.37887074 -0.10001391 91.06778482 -0.10023534 91.77757508 -0.10046348 C102.94637581 -0.1044135 114.11511136 -0.12187361 125.2838869 -0.145152 C136.74342706 -0.16884421 148.20291984 -0.18106867 159.66248757 -0.18249393 C166.09959897 -0.18354465 172.53661847 -0.18950933 178.9737072 -0.20731354 C185.02537237 -0.22372579 191.07687588 -0.22598317 197.1285553 -0.21717453 C199.3542429 -0.21640052 201.57993895 -0.2207944 203.80560493 -0.23063278 C206.83495451 -0.24324242 209.86372189 -0.23753563 212.89306641 -0.22705078 C213.7817727 -0.23510719 214.67047899 -0.24316359 215.58611578 -0.25146413 C221.5915713 -0.20257011 221.5915713 -0.20257011 223.67028672 1.50138021 C225.52704822 3.77297804 226.62740304 6.18911516 227.86549377 8.84747314 C228.66914368 10.55314453 228.66914368 10.55314453 229.48902893 12.29327393 C229.90731964 13.19024994 229.90731964 13.19024994 230.33406067 14.10534668 C235.13352333 24.37498224 240.02167976 34.49838889 246.01002502 44.14044189 C246.40335022 44.77498291 246.79667542 45.40952393 247.20191956 46.06329346 C257.31933059 62.28663727 268.34729828 77.80491254 281.01002502 92.14044189 C281.75639221 92.99766846 282.5027594 93.85489502 283.27174377 94.73809814 C289.23447352 101.49300383 295.6023191 107.81327976 302.01002502 114.14044189 C302.82857971 114.96157471 303.6471344 115.78270752 304.49049377 116.62872314 C358.36573628 170.33691063 432.15966404 200.84067223 507.01002502 209.14044189 C507.71686432 209.22828445 508.42370361 209.31612701 509.15196228 209.40663147 C516.47696935 210.25015595 523.74478863 210.26825498 531.11158752 210.23809814 C532.42920074 210.2366832 533.74681396 210.23526825 535.10435486 210.23381042 C538.57305367 210.23002918 542.04170926 210.22023751 545.51039124 210.20910645 C549.06364864 210.19879679 552.61691316 210.19429253 556.17018127 210.18927002 C563.11681339 210.17861038 570.06341712 210.16158812 577.01002502 210.14044189 C576.63002014 212.07785034 576.63002014 212.07785034 576.01002502 214.14044189 C574.09010315 215.14190674 574.09010315 215.14190674 571.54127502 215.85137939 C570.59034973 216.12361328 569.63942444 216.39584717 568.65968323 216.67633057 C567.62029602 216.9532373 566.58090881 217.23014404 565.51002502 217.51544189 C564.43647766 217.81361816 563.3629303 218.11179443 562.2568512 218.41900635 C467.69913994 244.32739326 368.54182885 241.75959733 236.61598206 184.53546143 C234.07227524 183.0844568 231.5400195 181.61520263 229.01002502 180.14044189 C228.1711676 179.65897705 227.33231018 179.17751221 226.46803284 178.68145752 C208.31337751 168.24165956 191.27052586 156.32518595 175.01002502 143.14044189 C174.05998596 142.38376221 173.1099469 141.62708252 172.13111877 140.84747314 C166.12046342 136.01671884 160.41443732 130.92388818 154.76783752 125.67950439 C152.61297905 123.69556954 150.43459401 121.77887675 148.19752502 119.89044189 C139.45464681 112.30470932 131.07969969 103.87291624 123.61549377 95.02716064 C121.61647192 92.67794518 119.53011673 90.41580242 117.44752502 88.14044189 C113.69383159 83.98823991 110.25643371 79.69814507 107.01002502 75.14044189 C103.49513171 78.56168796 100.31810797 82.09659932 97.19752502 85.89044189 C85.58042909 99.81427689 72.91396976 113.52439729 59.11549377 125.31231689 C56.65275474 127.4506506 54.27515159 129.67128788 51.88502502 131.89044189 C35.09829662 147.15738419 16.17322477 160.07017853 -2.98997498 172.14044189 C-4.06247498 172.82493408 -5.13497498 173.50942627 -6.23997498 174.21466064 C-9.46134207 176.24034174 -12.71041342 178.21102951 -15.98997498 180.14044189 C-16.66205994 180.53666748 -17.3341449 180.93289307 -18.02659607 181.34112549 C-46.07460901 197.70298659 -76.82441282 210.14568134 -107.98997498 219.14044189 C-108.83221619 219.38359131 -109.6744574 219.62674072 -110.54222107 219.8772583 C-193.19391928 243.34174152 -281.37960673 240.76954478 -362.98997498 214.14044189 C-362.98997498 212.82044189 -362.98997498 211.50044189 -362.98997498 210.14044189 C-361.971175 210.15043465 -361.971175 210.15043465 -360.93179321 210.16062927 C-354.39156581 210.22184841 -347.85142322 210.26696015 -341.31096935 210.29587841 C-337.95192293 210.3112475 -334.59330414 210.33369282 -331.23435974 210.36676025 C-307.62616059 210.5929519 -284.53630722 209.08934246 -261.36497498 204.39044189 C-260.07559021 204.13295166 -258.78620544 203.87546143 -257.45774841 203.61016846 C-219.27769028 195.84240428 -182.11113971 181.74979143 -148.98997498 161.14044189 C-148.19462341 160.64995361 -147.39927185 160.15946533 -146.57981873 159.65411377 C-129.16652053 148.85014191 -112.4282471 136.87214011 -97.62278748 122.65997314 C-95.48321625 120.61246062 -93.31483119 118.6728259 -91.05247498 116.76544189 C-81.08778402 108.10967221 -72.1271403 98.51603159 -63.98997498 88.14044189 C-63.07319575 87.02250854 -62.1537725 85.90673991 -61.23216248 84.79278564 C-41.36926093 60.64985091 -22.79228977 32.46914913 -11.85716248 3.05450439 C-9.81456633 -1.45392853 -4.24813779 -0.00413153 0 0 Z " fill="#000000" transform="translate(657.9899749755859,1196.8595581054688)"/>
</svg>
